HIERARCHY
ROOT Hips
{
	OFFSET -0.001795 -0.223333 0.028219
	CHANNELS 6 Xposition Yposition Zposition Zrotation Yrotation Xrotation 
	JOINT LeftUpLeg
	{
		OFFSET 0.069520 -0.091406 -0.006815
		CHANNELS 3 Zrotation Yrotation Xrotation
		JOINT LeftLeg
		{
			OFFSET 0.034277 -0.375199 -0.004496
			CHANNELS 3 Zrotation Yrotation Xrotation
			JOINT LeftFoot
			{
				OFFSET -0.013596 -0.397961 -0.043693
				CHANNELS 3 Zrotation Yrotation Xrotation
				JOINT LeftToe
				{
					OFFSET 0.026358 -0.055791 0.119288
					CHANNELS 3 Zrotation Yrotation Xrotation
					End Site
					{
						OFFSET 0.000000 0.000000 0.000000
					}
				}
			}
		}
	}
	JOINT RightUpLeg
	{
		OFFSET -0.067670 -0.090522 -0.004320
		CHANNELS 3 Zrotation Yrotation Xrotation
		JOINT RightLeg
		{
			OFFSET -0.038290 -0.382569 -0.008850
			CHANNELS 3 Zrotation Yrotation Xrotation
			JOINT RightFoot
			{
				OFFSET 0.015774 -0.398415 -0.042312
				CHANNELS 3 Zrotation Yrotation Xrotation
				JOINT RightToe
				{
					OFFSET -0.025372 -0.048144 0.123348
					CHANNELS 3 Zrotation Yrotation Xrotation
					End Site
					{
						OFFSET 0.000000 0.000000 0.000000
					}
				}
			}
		}
	}
	JOINT Spine
	{
		OFFSET -0.002533 0.108963 -0.026696
		CHANNELS 3 Zrotation Yrotation Xrotation
		JOINT Spine1
		{
			OFFSET 0.005487 0.135180 0.001092
			CHANNELS 3 Zrotation Yrotation Xrotation
			JOINT Spine2
			{
				OFFSET 0.001457 0.052922 0.025425
				CHANNELS 3 Zrotation Yrotation Xrotation
				JOINT Neck
				{
					OFFSET -0.002778 0.213870 -0.042857
					CHANNELS 3 Zrotation Yrotation Xrotation
					JOINT Head
					{
						OFFSET 0.005152 0.064970 0.051349
						CHANNELS 3 Zrotation Yrotation Xrotation
						End Site
						{
							OFFSET 0.000000 0.000000 0.000000
						}
					}
				}
				JOINT LeftShoulder
				{
					OFFSET 0.078845 0.121749 -0.034090
					CHANNELS 3 Zrotation Yrotation Xrotation
					JOINT LeftArm
					{
						OFFSET 0.090977 0.030469 -0.008868
						CHANNELS 3 Zrotation Yrotation Xrotation
						JOINT LeftForeArm
						{
							OFFSET 0.259612 -0.012772 -0.027456
							CHANNELS 3 Zrotation Yrotation Xrotation
							JOINT LeftHand
							{
								OFFSET 0.249234 0.008986 -0.001171
								CHANNELS 3 Zrotation Yrotation Xrotation
								End Site
								{
									OFFSET 0.000000 0.000000 0.000000
								}
							}
						}
					}
				}
				JOINT RightShoulder
				{
					OFFSET -0.081759 0.118833 -0.038615
					CHANNELS 3 Zrotation Yrotation Xrotation
					JOINT RightArm
					{
						OFFSET -0.096012 0.032551 -0.009143
						CHANNELS 3 Zrotation Yrotation Xrotation
						JOINT RightForeArm
						{
							OFFSET -0.253742 -0.013329 -0.021401
							CHANNELS 3 Zrotation Yrotation Xrotation
							JOINT RightHand
							{
								OFFSET -0.255298 0.007772 -0.005559
								CHANNELS 3 Zrotation Yrotation Xrotation
								End Site
								{
									OFFSET 0.000000 0.000000 0.000000
								}
							}
						}
					}
				}
			}
		}
	}
}
MOTION
Frames: 9
Frame Time: 0.050000
0.000000 0.950414 0.000000 -0.993522 -0.454520 -0.344727 1.938886 0.158273 2.392134 1.137012 -0.030943 -2.153779 -2.437902 -2.051268 6.035214 0.000000 0.000000 0.000000 -0.834922 -0.092858 1.210587 -1.003037 0.117819 0.243575 1.499343 0.635284 5.719858 0.000000 0.000000 0.000000 1.408063 -0.000973 -0.165096 -1.081652 0.552206 -2.214607 -0.119431 1.271560 7.368256 2.525207 -0.486684 -14.295300 0.000000 0.000000 0.000000 -19.681368 -2.732804 -0.607836 -54.073952 -5.434329 -4.268759 -12.039315 -20.451026 2.917621 0.000000 0.000000 0.000000 17.886553 2.140360 -0.197330 59.577764 6.659798 -2.810894 8.621991 21.028745 2.206361 0.000000 0.000000 0.000000 
0.000134 0.949377 0.000884 -1.056793 -0.571254 -0.079109 2.012194 0.184732 2.788850 1.201752 0.012173 -3.255038 -2.500823 -2.176936 6.043765 0.000000 0.000000 0.000000 -1.411782 -0.076776 1.264689 -0.241917 0.027031 0.037605 1.732473 1.600151 4.860189 0.000000 0.000000 0.000000 1.395249 0.041609 -0.988410 -1.697634 0.824468 -1.168312 0.371851 0.790104 6.931979 1.880087 -0.012035 -15.678504 0.000000 0.000000 0.000000 -20.287861 -2.229509 -0.780308 -53.705104 -5.803387 -4.059211 -12.455834 -20.590024 3.035400 0.000000 0.000000 0.000000 17.483600 2.346532 -0.232240 60.321561 6.171724 -3.021958 8.890607 21.928034 2.330508 0.000000 0.000000 0.000000 
0.000261 0.949249 0.001454 -0.725467 -0.334850 -0.137540 1.532858 0.181919 2.547670 1.499494 -0.053097 -2.378837 -2.585378 -2.832372 5.009680 0.000000 0.000000 0.000000 -1.657670 -0.077516 1.360578 -0.585116 0.064946 0.068375 1.274810 0.701997 4.594911 0.000000 0.000000 0.000000 1.238170 0.035607 -0.871742 -1.585845 0.786336 -2.575461 -0.155529 0.537767 7.652257 1.334131 0.301083 -15.506614 0.000000 0.000000 0.000000 -19.621054 -2.466186 -0.557718 -54.053319 -5.702368 -4.207530 -12.461579 -19.773090 2.918943 0.000000 0.000000 0.000000 18.743917 2.996261 0.045869 59.232506 5.692474 -3.298290 8.495253 22.175649 2.293592 0.000000 0.000000 0.000000 
0.000279 0.949073 0.002041 -0.858554 -0.062124 -0.233902 1.776828 0.196379 2.864043 1.481855 -0.028886 -2.843310 -3.195904 -3.715046 5.552827 0.000000 0.000000 0.000000 -1.668005 -0.099053 1.596373 -0.313894 0.035262 0.044671 1.268189 0.778000 4.453685 0.000000 0.000000 0.000000 0.822052 0.053683 -1.243897 -1.619267 0.796611 -1.847975 0.428116 -0.158275 7.180892 0.832167 0.510365 -15.026959 0.000000 0.000000 0.000000 -19.632981 -1.884266 -0.717552 -54.328088 -6.010071 -4.077410 -12.319861 -19.571059 2.885990 0.000000 0.000000 0.000000 18.465696 3.575788 0.188797 59.139934 5.422679 -3.365123 8.728918 22.235416 2.306196 0.000000 0.000000 0.000000 
0.000256 0.949536 0.002532 -0.869414 0.122409 -0.509329 1.617831 0.215118 3.031720 1.812674 -0.061422 -2.747495 -2.974683 -3.269480 5.560766 0.000000 0.000000 0.000000 -1.662549 -0.146641 2.122949 -0.134857 0.006079 -0.204317 0.986749 0.191126 4.350008 0.000000 0.000000 0.000000 0.746831 0.045382 -1.059646 -1.465475 0.729146 -1.976217 0.219568 -0.136562 7.141951 0.731970 0.564444 -14.676615 0.000000 0.000000 0.000000 -19.459381 -2.345944 -0.497854 -54.215761 -6.094704 -4.022359 -12.472539 -19.169137 2.841074 0.000000 0.000000 0.000000 18.688115 3.513740 0.180724 58.894993 5.408687 -3.361258 8.802935 22.342609 2.337414 0.000000 0.000000 0.000000 
0.000231 0.949961 0.002945 -0.928656 0.448694 -0.600479 1.807496 0.216834 3.175223 1.529946 -0.029759 -2.886508 -3.014678 -3.305253 5.590950 0.000000 0.000000 0.000000 -1.661340 -0.169423 2.360600 0.042154 -0.018117 -0.347606 0.962391 0.114484 4.436243 0.000000 0.000000 0.000000 0.478328 0.045839 -1.085433 -1.329911 0.671404 -2.127873 0.383929 -0.579707 7.376146 0.433232 0.724551 -14.744439 0.000000 0.000000 0.000000 -19.748012 -2.319697 -0.447371 -54.136745 -6.216091 -4.000826 -12.227664 -19.343454 2.839415 0.000000 0.000000 0.000000 18.767625 4.181506 0.464957 58.597930 5.510706 -3.311143 8.648336 22.243832 2.286167 0.000000 0.000000 0.000000 
0.000216 0.950170 0.003172 -0.956446 0.501080 -0.714893 1.876113 0.217535 3.219297 1.648917 -0.042722 -2.823178 -3.037760 -3.272016 5.730893 0.000000 0.000000 0.000000 -1.614924 -0.187270 2.534607 0.062631 -0.021303 -0.374392 0.932387 0.110182 4.309061 0.000000 0.000000 0.000000 0.377839 0.041701 -0.995781 -1.298048 0.657507 -2.145174 0.255718 -0.684903 7.345783 0.526872 0.679062 -15.010827 0.000000 0.000000 0.000000 -19.666748 -2.375752 -0.399277 -53.992319 -6.128340 -4.031019 -12.442242 -19.589781 2.915718 0.000000 0.000000 0.000000 18.845036 4.475762 0.605570 58.758993 5.436222 -3.354565 8.666864 22.538927 2.322398 0.000000 0.000000 0.000000 
0.000216 0.950191 0.003338 -1.020926 0.500353 -0.698319 1.977298 0.205277 3.108518 1.669094 -0.054060 -2.624329 -3.109434 -3.539185 5.483430 0.000000 0.000000 0.000000 -1.562694 -0.187520 2.512411 0.146227 -0.030158 -0.377762 0.841607 0.033594 4.033339 0.000000 0.000000 0.000000 0.217213 0.044324 -1.069890 -1.278578 0.648028 -2.110528 0.262856 -0.757908 7.387645 0.340646 0.782103 -14.919763 0.000000 0.000000 0.000000 -19.606282 -2.440977 -0.338623 -53.868453 -6.154139 -4.018742 -12.460998 -19.945678 2.978214 0.000000 0.000000 0.000000 18.875944 4.648274 0.679180 58.869640 5.519388 -3.320956 8.670166 22.680795 2.337067 0.000000 0.000000 0.000000 
0.000245 0.949989 0.003532 -1.094078 0.309551 -0.739720 1.976775 0.209029 3.139588 1.704686 -0.061532 -2.546711 -3.063967 -3.519354 5.379554 0.000000 0.000000 0.000000 -1.541401 -0.191643 2.558859 0.270861 -0.044564 -0.416918 0.819899 -0.040848 4.058606 0.000000 0.000000 0.000000 0.111301 0.045203 -1.098841 -1.371196 0.690245 -2.162616 0.357460 -0.734913 7.482172 0.165125 0.876240 -14.829742 0.000000 0.000000 0.000000 -19.377472 -2.495690 -0.264311 -54.001406 -6.558845 -3.858712 -12.359583 -19.818591 2.945630 0.000000 0.000000 0.000000 18.976466 5.027544 0.853707 58.813366 5.593044 -3.284313 8.546922 22.853573 2.329751 0.000000 0.000000 0.000000 
